<svg height="512pt" viewBox="-12 0 512 512" width="512pt" xmlns="http://www.w3.org/2000/svg"><path d="m0 512h144.664062v-255.542969h-144.664062zm82.453125-228.589844h29.746094v29.746094h-29.746094zm0 48.660156h29.746094v29.746094h-29.746094zm0 48.660157h29.746094v29.746093h-29.746094zm-49.992187-97.320313h29.746093v29.746094h-29.746093zm0 48.660156h29.746093v29.746094h-29.746093zm0 48.660157h29.746093v29.746093h-29.746093zm0 0"/><path d="m107.324219 91.773438v53.203124h154.308593c5.386719-20.039062 15.433594-38.1875 28.910157-53.203124zm0 0"/><path d="m329.753906 61.777344v.136718c8.25-4.101562 16.988282-7.355468 26.109375-9.644531v-52.269531h-216.632812v61.777344zm0 0"/><path d="m387.648438 391.621094-88.535157-112.882813c-22.101562-30.144531-41.941406-60.46875-41.941406-99.910156 0-1.289063.023437-2.574219.058594-3.855469h-149.90625v51.492188h67.332031v285.453125h35.269531v-121.3125h104.234375v121.3125h73.605469v-120.449219zm-135.726563-42.429688h-29.746094v-29.746094h29.746094zm49.992187 0h-29.746093v-29.746094h29.746093zm0 0"/><path d="m387.648438 343.023438 64.492187-82.214844c19.703125-26.886719 35.992187-51.636719 35.992187-81.980469 0-55.40625-45.078124-100.484375-100.484374-100.484375h-.5625c-55.144532.296875-99.921876 45.257812-99.921876 100.484375 0 30.34375 16.289063 55.089844 35.992188 81.980469zm0-228.058594c35.28125 0 63.984374 28.703125 63.984374 63.984375 0 35.285156-28.703124 63.988281-63.984374 63.988281s-63.984376-28.703125-63.984376-63.988281c0-35.28125 28.703126-63.984375 63.984376-63.984375zm0 0"/><path d="m387.648438 212.941406c18.742187 0 33.988281-15.246094 33.988281-33.988281s-15.246094-33.992187-33.988281-33.992187c-18.742188 0-33.988282 15.25-33.988282 33.992187s15.246094 33.988281 33.988282 33.988281zm0 0"/><path d="m239.921875 420.597656h44.242187v91.320313h-44.242187zm0 0"/></svg>